PathFileType	4	(X/Y/Z)	D:\TRACE\spot_10-12-23\spot_arm_body_motion_1_4-v60.trc
DataRate	CameraRate	NumFrames	NumMarkers	Units	OrigDataRate	OrigDataStartFrame	OrigNumFrames
100.00	100.00	      24	9	mm	100.00	2626	      7000
Frame#	Time	front left toe			Front right toe			aft left toe			aft right toe			Arm			FL body			FR body			AL Body			AR Body			
		X1	Y1	Z1	X2	Y2	Z2	X3	Y3	Z3	X4	Y4	Z4	X5	Y5	Z5	X6	Y6	Z6	X7	Y7	Z7	X8	Y8	Z8	X9	Y9	Z9	

2626	26.250	78.97373	-0.35413	-408.93527	462.01636	5.38143	-498.25195	185.90118	26.44441	159.43680	560.32434	22.64731	64.71001	132.76538	731.77930	-780.01361	130.56036	573.87842	-493.81445	279.33966	576.88397	-537.04999	376.35687	569.40082	353.91440	512.68024	567.01953	316.91205	
2627	26.260	74.79282	6.62935	-404.63422	463.17081	4.87080	-498.95334	186.47429	26.73037	158.62956	561.67181	21.79157	63.91651	132.88776	731.89032	-780.09229	133.40492	574.13495	-492.77579	282.07983	577.41272	-535.73810	377.67136	568.64496	355.22083	514.25061	566.91980	318.61087	
2628	26.270	76.88028	19.12257	-407.05774	466.35858	5.37432	-497.08862	187.64125	27.18400	159.15685	562.34991	22.31442	64.58835	132.97359	732.04456	-780.22070	136.57068	572.94617	-492.07761	284.75702	577.31067	-534.44958	378.67828	568.77271	356.56699	515.27594	567.72546	320.27942	
2629	26.280	65.32402	32.83851	-407.48029	465.81506	4.49811	-497.79144	188.10089	26.75805	158.82896	562.42834	23.51648	64.09994	132.99574	732.04724	-780.25543	139.53575	572.40607	-491.28119	288.05066	577.21014	-533.45605	380.10931	568.92651	357.97815	517.09357	568.27148	322.06494	
2630	26.290	58.10825	48.32198	-411.65167	466.53876	4.30654	-498.07813	188.42874	26.59097	159.20676	563.11188	22.73705	65.31886	132.40747	732.01917	-780.15131	142.03801	571.91400	-490.36246	290.45700	577.27399	-532.20801	381.24933	568.47028	359.09930	517.78687	568.41028	323.20517	
2631	26.300	50.26934	62.48039	-414.06198	468.82022	5.53524	-496.37262	189.23317	26.60904	159.27908	564.57172	22.36886	64.65621	130.51358	732.08411	-779.67181	144.29782	572.11084	-489.57678	292.90176	577.66705	-531.27155	382.38879	567.93054	360.34680	519.40912	568.17322	324.80203	
2632	26.310	47.14305	74.34671	-415.41681	469.53101	5.93954	-496.03284	189.70647	26.93390	159.07214	564.75995	21.70235	65.01280	128.34125	732.00983	-779.34308	146.08276	572.83057	-488.54562	295.30072	578.07062	-530.33136	383.85858	567.57623	361.48474	521.08777	567.62158	326.22812	
2633	26.320	48.35183	85.50819	-416.52512	470.36502	6.22126	-495.79733	190.38657	27.15139	159.45578	565.40466	21.75223	64.98171	126.44517	732.26624	-778.84509	147.45880	573.32117	-487.27802	296.72482	578.58844	-529.27991	385.09866	567.30292	362.44083	521.85852	567.01447	326.87244	
2634	26.330	47.38418	93.41014	-414.91321	470.60138	6.30710	-495.87439	191.47342	26.95872	159.63852	566.49475	21.74477	65.17800	124.95143	732.50055	-778.45270	148.31880	573.95856	-486.27032	297.62762	578.96710	-528.25616	386.21222	566.76270	363.49066	522.83301	566.77271	327.92432	
2635	26.340	49.91471	101.82328	-416.04504	470.71097	6.25751	-496.32559	192.27473	26.88889	159.84909	567.40289	21.80136	65.15727	123.73769	732.58057	-778.39752	149.15375	573.94220	-485.33676	299.37122	579.30566	-527.41315	387.56177	566.44672	364.22043	524.06915	566.37708	328.73044	
2636	26.350	47.93629	109.70036	-416.70465	471.36392	6.64432	-496.34482	192.78917	26.92188	159.95505	567.57159	21.74931	65.16228	123.28004	732.67194	-778.49103	149.70506	574.05450	-484.36020	298.81976	579.57550	-526.30475	388.77490	566.22150	365.17899	525.55963	566.25909	329.53088	
2637	26.360	46.83528	115.20511	-418.22723	472.43085	7.15706	-495.96664	193.94197	26.80459	160.01869	568.76392	22.03292	65.29903	123.37917	732.75909	-778.71906	149.79605	574.14899	-483.10040	298.89731	579.87683	-525.23145	389.95273	566.22644	366.12228	526.50708	566.36133	330.06000	
2638	26.370	45.94397	119.57825	-419.52420	471.96771	7.35663	-496.51770	194.51289	26.65466	160.16846	569.68256	22.13821	65.38437	123.91432	732.73895	-779.08313	149.51959	574.36798	-482.12323	297.95297	580.53339	-524.45050	391.15424	565.84424	366.90616	527.72833	566.21490	330.81970	
2639	26.380	45.93766	121.23552	-420.97198	472.36856	8.03857	-496.30771	195.21530	26.80139	160.52859	570.29877	22.04001	65.22336	124.99092	732.40973	-779.79938	148.84425	574.75977	-480.72949	297.68542	580.93848	-523.48749	392.57031	565.52277	367.85428	528.68842	565.94678	331.22571	
2640	26.390	47.74877	120.78540	-423.44263	472.66156	8.35652	-496.36404	196.11833	26.67519	160.73204	570.54688	21.83803	65.13210	126.92056	732.13568	-781.01105	148.09976	575.07214	-479.52652	296.16318	581.04987	-522.40198	393.17221	565.40381	368.54129	529.24585	565.91321	331.59747	
2641	26.400	48.85380	119.39186	-425.53876	473.05777	8.51738	-496.37793	196.94531	26.44306	160.83557	571.70245	22.03734	65.13961	129.43208	731.94806	-782.15912	147.48320	575.07990	-478.66302	295.69925	581.32172	-521.82684	393.65247	565.13336	369.15945	530.03339	565.64886	332.01007	
2642	26.410	51.12777	118.67228	-428.49524	473.66745	8.67702	-496.29440	197.53204	26.39640	160.79510	572.65210	22.31378	65.14178	132.08078	731.99976	-783.47192	146.94899	575.05640	-478.04843	295.46411	581.44604	-521.11475	393.30402	565.01465	369.37094	529.93066	565.63812	332.34067	
2643	26.420	51.52985	118.33363	-430.13055	474.87936	8.65053	-496.21011	198.22299	26.24878	160.79025	573.09570	22.88444	65.01517	134.66885	731.99402	-784.74121	146.72748	574.81964	-477.81479	295.54611	581.45715	-520.69281	392.97595	565.01947	369.75174	529.32874	566.19916	333.10748	
2644	26.430	50.79868	117.89615	-430.93689	476.29752	8.52205	-495.85608	198.95276	25.92826	160.76961	573.12305	23.58601	65.29589	136.45039	731.96539	-785.58716	146.87398	574.24573	-477.65717	295.71561	581.34589	-520.49500	392.08508	565.04993	370.79724	528.90356	566.19989	333.94080	
2645	26.440	50.05058	118.33089	-432.21014	477.25589	8.33126	-495.75885	199.34982	25.56653	160.81198	573.23712	24.19313	65.45638	137.30006	731.69775	-786.13049	147.37123	573.81641	-477.78470	296.07761	581.01227	-520.34198	390.50723	564.96332	370.92810	527.26898	566.12427	334.52121	
2646	26.450	47.80281	119.11057	-433.00906	478.15524	8.38209	-495.66522	199.73866	25.10861	160.80423	573.81250	24.15538	65.97532	136.89883	731.44183	-786.27582	147.95648	573.56506	-477.95239	296.09503	580.70062	-520.04010	388.60950	564.72839	371.15762	525.22095	565.81573	335.05823	
2647	26.460	45.82423	119.61441	-434.23520	479.13800	8.44468	-495.68115	200.07545	24.87030	160.82607	574.94769	23.93865	66.34677	135.72346	731.25635	-785.96356	148.40912	573.41620	-478.09595	297.31107	580.06116	-519.93005	387.57193	564.39917	371.69873	524.31360	565.56836	335.88898	
2648	26.470	43.52726	119.50044	-434.96890	480.48035	8.75231	-495.14636	200.38641	24.64326	160.93373	575.63983	23.90911	66.49523	134.28564	731.25989	-785.58801	148.78044	573.41022	-478.29611	297.60028	579.78180	-519.84521	385.71838	564.44641	371.74631	522.52100	565.15491	336.30063	
2649	26.480	41.38049	117.72185	-435.48877	480.88672	8.63519	-495.61652	200.60197	24.71676	161.11577	576.22534	23.92302	66.56351	132.78537	731.26019	-784.92352	148.64249	573.44116	-478.42233	297.53537	579.60638	-519.87653	384.75375	564.31799	371.94177	521.38300	564.83105	336.58533	
